<svg width="16" height="16" viewBox="0 0 16 16" fill="none" xmlns="http://www.w3.org/2000/svg">
<path d="M1.33333 13C1.33333 12.1159 1.68452 11.2681 2.30964 10.643C2.93476 10.0178 3.78261 9.66666 4.66667 9.66666H11.3333C12.2174 9.66666 13.0652 10.0178 13.6904 10.643C14.3155 11.2681 14.6667 12.1159 14.6667 13C14.6667 13.442 14.4911 13.8659 14.1785 14.1785C13.866 14.4911 13.442 14.6667 13 14.6667H3C2.55797 14.6667 2.13405 14.4911 1.82149 14.1785C1.50893 13.8659 1.33333 13.442 1.33333 13Z" stroke="#676767" stroke-width="2" stroke-linejoin="round"/>
<path d="M8 6.33333C9.38071 6.33333 10.5 5.21404 10.5 3.83333C10.5 2.45262 9.38071 1.33333 8 1.33333C6.61929 1.33333 5.5 2.45262 5.5 3.83333C5.5 5.21404 6.61929 6.33333 8 6.33333Z" stroke="#676767" stroke-width="2"/>
</svg>
